<?xml version="1.0" encoding="utf-8"?>
<!-- Generator: Adobe Illustrator 16.0.4, SVG Export Plug-In . SVG Version: 6.00 Build 0)  -->
<!DOCTYPE svg PUBLIC "-//W3C//DTD SVG 1.1//EN" "http://www.w3.org/Graphics/SVG/1.1/DTD/svg11.dtd">
<svg version="1.1" id="Layer_1" xmlns="http://www.w3.org/2000/svg" xmlns:xlink="http://www.w3.org/1999/xlink" x="0px" y="0px"
	 width="1018px" height="690px" viewBox="-164 164 1018 690" enable-background="new -164 164 1018 690" xml:space="preserve">
<path fill="#FFFFFF" stroke="#6B6B6B" stroke-miterlimit="10" d="M218.917,413.716v1.291h18.023v-1.291
	c0-0.545-0.442-0.987-0.987-0.987h-16.048C219.358,412.728,218.917,413.171,218.917,413.716z"/>
<path fill="#FFFFFF" stroke="#6B6B6B" stroke-miterlimit="10" d="M255.698,412.949v2.14h12.675v-2.14
	c0-0.546-0.428-0.988-0.956-0.988h-10.763C256.126,411.961,255.698,412.403,255.698,412.949z"/>
<path fill="#FFFFFF" stroke="#6B6B6B" stroke-miterlimit="10" d="M287.59,412.949v2.14h12.675v-2.14
	c0-0.546-0.428-0.988-0.956-0.988h-10.763C288.019,411.961,287.59,412.403,287.59,412.949z"/>
<path fill="#FFFFFF" stroke="#868684" stroke-miterlimit="10" d="M513.805,415.007H201.047c-35.613,0-35.202,23.235-35.202,23.235
	s0,96.778,0,128.439c0,31.662,35.202,29.725,35.202,29.725h312.755c35.664-0.428,32.924-24.197,32.924-24.197s0-106.338,0-132.348
	C546.727,413.854,513.805,415.007,513.805,415.007z"/>
<circle fill="#414141" stroke="#6B6B6B" stroke-miterlimit="10" cx="187.934" cy="567.709" r="8.944"/>
<circle fill="#444140" stroke="#6B6B6B" stroke-miterlimit="10" cx="187.659" cy="550.864" r="1.262"/>
<path fill="#C5BCBD" stroke="#6B6B6B" stroke-miterlimit="10" d="M191.309,534.513c2.318,0,4.197,1.88,4.197,4.198l0,0
	c0,2.318-1.879,4.198-4.197,4.198h-7.188c-2.317,0-4.198-1.88-4.198-4.198l0,0c0-2.317,1.88-4.198,4.198-4.198H191.309z"/>
<path fill="#FFFFFF" stroke="#6B6B6B" stroke-miterlimit="10" d="M165.807,536.458c-1.262,0.058-2.27,1.09-2.27,2.366v22.809
	c0,1.276,1.008,2.311,2.27,2.367V536.458z"/>
<rect x="201.047" y="415.007" fill="#F2F2F2" stroke="#868684" stroke-miterlimit="10" width="312.755" height="181.399"/>
<circle fill="#4D4C4C" stroke="#6B6B6B" stroke-miterlimit="10" cx="187.934" cy="567.709" r="5.833"/>
<path fill="#FFFFFF" stroke="#D1D1D1" stroke-width="3" stroke-miterlimit="10" d="M-96.316,847.094c0,0-58-1-58-51s0-580,0-580
	s4-46,54-46s894,0,894,0s56-3,56,60s0,546,0,546s6.891,71-72,71C692.684,847.094-96.316,847.094-96.316,847.094z"/>
<path fill="#FFFFFF" stroke="#D1D1D1" stroke-width="3" stroke-miterlimit="10" d="M-155.324,334.763
	c-1.765,0.675-3.022,2.37-3.022,4.371v36.787c0,2.001,1.258,3.697,3.022,4.371V334.763z"/>
<circle fill="#989898" stroke="#FFFFFF" stroke-miterlimit="10" cx="-101.557" cy="508.533" r="6.686"/>
<circle fill="#989898" stroke="#FFFFFF" stroke-miterlimit="10" cx="-101.366" cy="508.533" r="2.586"/>
<circle fill="none" stroke="#FFFFFF" stroke-miterlimit="10" cx="-100.483" cy="528.713" r="3.405"/>
<path fill="#414141" d="M744.496,202.969c3.312,0,6,2.688,6,6v598c0,3.313-2.688,6-6,6h-796c-3.313,0-6-2.687-6-6v-598
	c0-3.312,2.687-6,6-6H744.496z"/>
<circle fill="#D1D1D1" stroke="#FFFFFF" stroke-miterlimit="10" cx="799.727" cy="508.421" r="24.518"/>
<path fill="#E2E2E1" d="M776.115,508.423c0,12.975,10.516,23.491,23.49,23.491c0.477,0,0.947-0.019,1.418-0.047
	c10.082-23.466,3.168-40.012-1.025-46.924c-0.131-0.002-0.262-0.01-0.393-0.01C786.631,484.934,776.115,495.451,776.115,508.423z"/>
<path fill="#E5E5E4" stroke="#FFFFFF" stroke-miterlimit="10" d="M802.332,499.639c3.867,0,7,3.136,7,7v3.562c0,3.867-3.133,7-7,7
	h-5.211c-3.867,0-7-3.133-7-7v-3.562c0-3.864,3.133-7,7-7H802.332z"/>
</svg>
